<?xml version="1.0" encoding="UTF-8"?>
<svg width="247" height="50" viewBox="-2 -2 247 50" fill="none" xmlns="http://www.w3.org/2000/svg">
  <!-- Icon: Zero with arrow through it -->
  <circle cx="26" cy="26" r="20" stroke="#7C6FFF" stroke-width="2.5" fill="none"/>
  <line x1="10" y1="26" x2="42" y2="26" stroke="#7C6FFF" stroke-width="2.5" stroke-linecap="round"/>
  <polyline points="36,20 42,26 36,32" fill="none" stroke="#7C6FFF" stroke-width="2.5" stroke-linecap="round" stroke-linejoin="round"/>
  <circle cx="26" cy="26" r="3" fill="#A89DFF"/>
  <!-- Wordmark (outlined) -->
  <path fill="#ffffff" d="M59.1900 13.3500L59.1900 10.1200L77.2100 10.1200L77.2100 13.3500L64.8340 18.4670L64.6980 17.7700L77.2100 17.7700L77.2100 21L59.1900 21L59.1900 17.7700L71.6170 12.6530L71.7530 13.3500L59.1900 13.3500Z M94.0800 16.4100L83.5400 16.4100L83.5400 17.7700L96.4600 17.7700L96.4600 21L79.2900 21L79.2900 10.1200L96.4260 10.1200L96.4260 13.3500L83.5400 13.3500L83.5400 14.7100L94.0800 14.7100L94.0800 16.4100Z M102.6200 21L98.3700 21L98.3700 10.1200L111.5110 10.1200Q113.0580 10.1200 114.2905 10.4685Q115.5230 10.8170 116.2455 11.6330Q116.9680 12.4490 116.9680 13.8600L116.9680 13.8600Q116.9680 14.7950 116.6280 15.4070Q116.2880 16.0190 115.6930 16.3590Q115.0980 16.6990 114.3330 16.8520Q113.5680 17.0050 112.7350 17.0390L112.7350 17.0390L111.4940 16.8010Q113.5170 16.8180 114.6135 16.9710Q115.7100 17.1240 116.1435 17.5235Q116.5770 17.9230 116.5770 18.6710L116.5770 18.6710L116.5770 21L112.3270 21L112.3270 19.1810Q112.3270 18.6710 112.1315 18.4075Q111.9360 18.1440 111.2815 18.0420Q110.6270 17.9400 109.2670 17.9400L109.2670 17.9400L102.6200 17.9400L102.6200 21ZM102.6200 13.5200L102.6200 15.1010L111.5110 15.1010Q112.0210 15.1010 112.3695 14.9310Q112.7180 14.7610 112.7180 14.2850L112.7180 14.2850Q112.7180 13.8430 112.3695 13.6815Q112.0210 13.5200 111.5110 13.5200L111.5110 13.5200L102.6200 13.5200Z M129.1290 21.3400L129.1290 21.3400Q125.4230 21.3400 123.1620 20.6855Q120.9010 20.0310 119.8725 18.7475Q118.8440 17.4640 118.8440 15.5600L118.8440 15.5600Q118.8440 13.6560 119.8725 12.3725Q120.9010 11.0890 123.1620 10.4345Q125.4230 9.7800 129.1290 9.7800L129.1290 9.7800Q132.8350 9.7800 135.0960 10.4345Q137.3570 11.0890 138.3855 12.3725Q139.4140 13.6560 139.4140 15.5600L139.4140 15.5600Q139.4140 17.4640 138.3855 18.7475Q137.3570 20.0310 135.0960 20.6855Q132.8350 21.3400 129.1290 21.3400ZM129.1290 18.1100L129.1290 18.1100Q130.8800 18.1100 132.1550 17.8975Q133.4300 17.6850 134.1270 17.1325Q134.8240 16.5800 134.8240 15.5600L134.8240 15.5600Q134.8240 14.5400 134.1270 13.9875Q133.4300 13.4350 132.1550 13.2225Q130.8800 13.0100 129.1290 13.0100L129.1290 13.0100Q127.3780 13.0100 126.0605 13.2225Q124.7430 13.4350 124.0035 13.9875Q123.2640 14.5400 123.2640 15.5600L123.2640 15.5600Q123.2640 16.5800 124.0035 17.1325Q124.7430 17.6850 126.0605 17.8975Q127.3780 18.1100 129.1290 18.1100Z  M161.0840 16.4100L150.5440 16.4100L150.5440 17.7700L163.4640 17.7700L163.4640 21L146.2940 21L146.2940 10.1200L163.4300 10.1200L163.4300 13.3500L150.5440 13.3500L150.5440 14.7100L161.0840 14.7100L161.0840 16.4100Z M169.6240 10.1200L182.4250 17.6680L180.8440 18.5690L180.8440 10.1200L185.0940 10.1200L185.0940 21L180.8440 21L168.0430 13.5880L169.6240 12.6700L169.6240 21L165.3740 21L165.3740 10.1200L169.6240 10.1200Z M186.4940 13.3500L186.4940 10.1200L204.1740 10.1200L204.1740 13.3500L186.4940 13.3500ZM193.2090 21L193.2090 13.1290L197.4590 13.1290L197.4590 21L193.2090 21Z M209.8240 21L205.5740 21L205.5740 10.1200L218.7150 10.1200Q220.2620 10.1200 221.4945 10.4685Q222.7270 10.8170 223.4495 11.6330Q224.1720 12.4490 224.1720 13.8600L224.1720 13.8600Q224.1720 14.7950 223.8320 15.4070Q223.4920 16.0190 222.8970 16.3590Q222.3020 16.6990 221.5370 16.8520Q220.7720 17.0050 219.9390 17.0390L219.9390 17.0390L218.6980 16.8010Q220.7210 16.8180 221.8175 16.9710Q222.9140 17.1240 223.3475 17.5235Q223.7810 17.9230 223.7810 18.6710L223.7810 18.6710L223.7810 21L219.5310 21L219.5310 19.1810Q219.5310 18.6710 219.3355 18.4075Q219.1400 18.1440 218.4855 18.0420Q217.8310 17.9400 216.4710 17.9400L216.4710 17.9400L209.8240 17.9400L209.8240 21ZM209.8240 13.5200L209.8240 15.1010L218.7150 15.1010Q219.2250 15.1010 219.5735 14.9310Q219.9220 14.7610 219.9220 14.2850L219.9220 14.2850Q219.9220 13.8430 219.5735 13.6815Q219.2250 13.5200 218.7150 13.5200L218.7150 13.5200L209.8240 13.5200Z M237.7780 10.1200L242.7930 10.1200L235.9080 18.2290L235.9080 21L231.6580 21L231.6580 18.2290L224.7730 10.1200L229.7880 10.1200L235.3810 17.1750L232.2360 17.1750L237.7780 10.1200Z"/>
  <path fill="#7C6FFF" d="M59.5340 40L58.3900 40L61.7440 30.9000L62.9010 30.9000L66.2420 40L65.0850 40L62.3160 32.2650L62.3160 32.2650L59.5340 40ZM64.6690 37.6600L59.9240 37.6600L60.2360 36.7760L64.3570 36.7760L64.6690 37.6600Z M71.5590 40L70.4670 40L70.4670 30.9000L71.5590 30.9000L71.5590 40Z"/>
</svg>
