<?xml version="1.0" encoding="UTF-8"?>
<svg width="209" height="32" viewBox="4 4 209 32" fill="none" xmlns="http://www.w3.org/2000/svg">
  <defs>
    <linearGradient id="wordGrad" x1="0" y1="0" x2="200" y2="0" gradientUnits="userSpaceOnUse">
      <stop offset="0%" stop-color="#7C6FFF"/>
      <stop offset="60%" stop-color="#A89DFF"/>
    </linearGradient>
  </defs>
  <!-- Compact icon -->
  <circle cx="20" cy="20" r="14" stroke="#7C6FFF" stroke-width="2" fill="none"/>
  <line x1="8" y1="20" x2="32" y2="20" stroke="#7C6FFF" stroke-width="2" stroke-linecap="round"/>
  <polyline points="26,14 32,20 26,26" fill="none" stroke="#7C6FFF" stroke-width="2" stroke-linecap="round" stroke-linejoin="round"/>
  <circle cx="20" cy="20" r="2.5" fill="#A89DFF"/>
  <!-- Wordmark (outlined) -->
  <path fill="url(#wordGrad)" d="M45.2600 17.9000L45.2600 14.4800L64.3400 14.4800L64.3400 17.9000L51.2360 23.3180L51.0920 22.5800L64.3400 22.5800L64.3400 26L45.2600 26L45.2600 22.5800L58.4180 17.1620L58.5620 17.9000L45.2600 17.9000Z M78.0780 22.8320L78.0780 22.8320L82.3260 22.8320Q82.1640 23.8760 81.2910 24.6500Q80.4180 25.4240 78.7530 25.8470Q77.0880 26.2700 74.5140 26.2700L74.5140 26.2700Q71.7960 26.2700 69.8250 25.8380Q67.8540 25.4060 66.7920 24.3800Q65.7300 23.3540 65.7300 21.6080L65.7300 21.6080Q65.7300 19.8800 66.7650 18.8450Q67.8000 17.8100 69.7620 17.3600Q71.7240 16.9100 74.5140 16.9100L74.5140 16.9100Q77.2500 16.9100 78.9960 17.3960Q80.7420 17.8820 81.5700 18.9710Q82.3980 20.0600 82.3620 21.9140L82.3620 21.9140L70.1220 21.9140Q70.2120 22.3820 70.6350 22.7780Q71.0580 23.1740 71.9490 23.4170Q72.8400 23.6600 74.3340 23.6600L74.3340 23.6600Q75.8820 23.6600 76.8810 23.4440Q77.8800 23.2280 78.0780 22.8320ZM74.3340 19.5200L74.3340 19.5200Q72.4260 19.5200 71.4270 19.9340Q70.4280 20.3480 70.2480 20.7620L70.2480 20.7620L78.1680 20.7620Q78.0420 20.2940 77.1600 19.9070Q76.2780 19.5200 74.3340 19.5200Z M83.3020 26L83.3020 17.1800L87.6220 17.1800L87.6220 26L83.3020 26ZM92.2660 16.9100L92.2660 20.5100Q91.0960 20.5100 90.1240 20.7260Q89.1520 20.9420 88.4680 21.2390Q87.7840 21.5360 87.4420 21.8240L87.4420 21.8240L87.4060 20.9600Q87.4600 20.5820 87.6940 20.0690Q87.9280 19.5560 88.3240 19.0070Q88.7200 18.4580 89.2960 17.9810Q89.8720 17.5040 90.6190 17.2070Q91.3660 16.9100 92.2660 16.9100L92.2660 16.9100Z M101.3060 26.2700L101.3060 26.2700Q98.4440 26.2700 96.5450 25.8020Q94.6460 25.3340 93.7010 24.3080Q92.7560 23.2820 92.7560 21.6080L92.7560 21.6080Q92.7560 19.9340 93.7010 18.8990Q94.6460 17.8640 96.5450 17.3870Q98.4440 16.9100 101.3060 16.9100L101.3060 16.9100Q104.1500 16.9100 106.0310 17.3870Q107.9120 17.8640 108.8480 18.8990Q109.7840 19.9340 109.7840 21.6080L109.7840 21.6080Q109.7840 23.2820 108.8480 24.3080Q107.9120 25.3340 106.0310 25.8020Q104.1500 26.2700 101.3060 26.2700ZM101.3060 23.6600L101.3060 23.6600Q102.6380 23.6600 103.5380 23.4350Q104.4380 23.2100 104.9060 22.7510Q105.3740 22.2920 105.3740 21.6080L105.3740 21.6080Q105.3740 20.9240 104.9150 20.4560Q104.4560 19.9880 103.5560 19.7540Q102.6560 19.5200 101.3060 19.5200L101.3060 19.5200Q99.9740 19.5200 99.0470 19.7540Q98.1200 19.9880 97.6430 20.4470Q97.1660 20.9060 97.1660 21.6080L97.1660 21.6080Q97.1660 22.2920 97.6340 22.7510Q98.1020 23.2100 99.0290 23.4350Q99.9560 23.6600 101.3060 23.6600Z M126.8340 21.1400L115.6740 21.1400L115.6740 22.5800L129.3540 22.5800L129.3540 26L111.1740 26L111.1740 14.4800L129.3180 14.4800L129.3180 17.9000L115.6740 17.9000L115.6740 19.3400L126.8340 19.3400L126.8340 21.1400Z M130.7440 26L130.7440 17.1800L135.0640 17.1800L135.0640 26L130.7440 26ZM141.5440 16.9100L141.5440 16.9100Q142.6060 16.9100 143.5960 17.1350Q144.5860 17.3600 145.3690 17.9000Q146.1520 18.4400 146.6200 19.3760Q147.0880 20.3120 147.0880 21.7340L147.0880 21.7340L147.0880 26L142.7680 26L142.7680 22.2740Q142.7680 20.9240 142.0660 20.3570Q141.3640 19.7900 139.5280 19.7900L139.5280 19.7900Q138.5560 19.7900 137.6470 20.0060Q136.7380 20.2220 136.0180 20.5190Q135.2980 20.8160 134.8840 21.1040L134.8840 21.1040L134.8480 20.4200Q134.9200 20.0960 135.3430 19.5110Q135.7660 18.9260 136.5760 18.3320Q137.3860 17.7380 138.6190 17.3240Q139.8520 16.9100 141.5440 16.9100Z M147.7580 19.8800L147.7580 17.1800L158.3420 17.1800L158.3420 19.8800L147.7580 19.8800ZM150.8900 26L150.8900 14.4800L155.2100 14.4800L155.2100 26L150.8900 26Z M159.0120 26L159.0120 17.1800L163.3320 17.1800L163.3320 26L159.0120 26ZM167.9760 16.9100L167.9760 20.5100Q166.8060 20.5100 165.8340 20.7260Q164.8620 20.9420 164.1780 21.2390Q163.4940 21.5360 163.1520 21.8240L163.1520 21.8240L163.1160 20.9600Q163.1700 20.5820 163.4040 20.0690Q163.6380 19.5560 164.0340 19.0070Q164.4300 18.4580 165.0060 17.9810Q165.5820 17.5040 166.3290 17.2070Q167.0760 16.9100 167.9760 16.9100L167.9760 16.9100Z M174.0460 26L167.9260 17.1800L172.5160 17.1800L177.7720 25.6400L174.0460 26ZM179.8960 17.1800L184.4860 17.1800L175.7200 29.6000L171.3100 29.6000L175.0720 24.5060L179.8960 17.1800Z"/>
  <path fill="#ffffff" d="M200.6000 24.2540L188.2880 24.2540L188.2880 21.5540L200.6000 21.5540L200.6000 24.2540ZM189.2060 26L184.2560 26L191.9780 14.4800L196.9820 14.4800L204.7760 26L199.8260 26L193.1480 15.6860L195.8300 15.6860L189.2060 26Z M205.9860 26L205.9860 14.4800L210.4860 14.4800L210.4860 26L205.9860 26Z"/>
</svg>
